<svg width="12" height="12" viewBox="0 0 12 12" fill="none" xmlns="http://www.w3.org/2000/svg">
<path d="M6 0C2.68548 0 0 2.68548 0 6C0 9.31452 2.68548 12 6 12C9.31452 12 12 9.31452 12 6C12 2.68548 9.31452 0 6 0ZM7.38145 8.47016L5.24758 6.91935C5.17258 6.86371 5.12903 6.77661 5.12903 6.68468V2.6129C5.12903 2.45323 5.25968 2.32258 5.41935 2.32258H6.58065C6.74032 2.32258 6.87097 2.45323 6.87097 2.6129V5.94435L8.40726 7.0621C8.5379 7.15645 8.56452 7.3379 8.47016 7.46855L7.7879 8.40726C7.69355 8.53548 7.5121 8.56452 7.38145 8.47016Z" fill="white"/>
</svg>
