<?xml version="1.0" encoding="utf-8"?>
<!-- Generator: Adobe Illustrator 23.0.4, SVG Export Plug-In . SVG Version: 6.00 Build 0)  -->
<svg version="1.1" id="Layer_1" xmlns="http://www.w3.org/2000/svg" xmlns:xlink="http://www.w3.org/1999/xlink" x="0px" y="0px"
	 viewBox="0 0 89.3 99.7" style="enable-background:new 0 0 89.3 99.7;" xml:space="preserve">
<style type="text/css">
	.st0{fill:#FFFFFF;}
</style>
<g id="Layer_7_copy">
	<path class="st0" d="M0,1.2h17.5c4.2,0,7.3,1,9.5,3s3.2,4.9,3.3,8.6c0.1,2-0.4,3.9-1.2,5.7c-0.9,1.6-2.2,2.9-3.8,3.8
		c1.5,0.3,2.9,0.8,4.3,1.5c1.1,0.6,2.1,1.4,2.9,2.4c0.7,1,1.3,2.1,1.6,3.2c0.3,1.3,0.5,2.5,0.5,3.8c0,1.9-0.3,3.9-1.1,5.6
		c-0.7,1.6-1.8,3-3.1,4.1c-1.4,1.2-3.1,2.1-4.9,2.6c-2.1,0.6-4.3,0.9-6.5,0.8H0V1.2z M11.8,19h2.2c3.7,0,5.5-1.5,5.5-4.4
		s-1.8-4.4-5.5-4.4h-2.2V19z M11.8,37.4h2.6c3,0,5.1-0.4,6.4-1.1c1.3-0.8,2-2.2,1.9-3.7c0.1-1.5-0.6-2.9-1.9-3.7
		c-1.3-0.8-3.4-1.1-6.4-1.1h-2.6V37.4z"/>
	<path class="st0" d="M39.1,23.9C39,14.1,45,5.4,54,1.9c6.5-2.5,13.7-2.5,20.2-0.1c3,1.1,5.7,2.9,8,5.1c2.2,2.2,4,4.7,5.2,7.6
		c1.2,3,1.9,6.2,1.8,9.4c0,3.2-0.6,6.4-1.9,9.4c-1.2,2.9-3,5.4-5.2,7.6c-2.3,2.2-5,3.9-8,5.1c-6.5,2.4-13.7,2.4-20.2,0
		C45,42.4,39,33.6,39.1,23.9L39.1,23.9z M51.4,23.9c0,1.7,0.3,3.4,1,5c1.3,3,3.8,5.4,6.8,6.5c3.1,1.2,6.6,1.2,9.8,0
		c1.5-0.6,2.9-1.5,4.1-2.6c1.2-1.1,2.1-2.5,2.8-4c1.4-3.2,1.4-6.8,0-10c-0.7-1.5-1.6-2.9-2.8-4c-1.2-1.1-2.6-2-4.1-2.6
		c-3.1-1.2-6.6-1.2-9.8,0c-3,1.2-5.5,3.6-6.8,6.6C51.7,20.4,51.4,22.1,51.4,23.9z"/>
	<path class="st0" d="M0,53.2h17.5c4.2,0,7.3,1,9.5,3s3.2,4.9,3.3,8.6c0.1,2-0.4,3.9-1.2,5.7c-0.9,1.6-2.2,2.9-3.8,3.8
		c1.5,0.3,2.9,0.8,4.3,1.5c1.1,0.6,2.1,1.4,2.9,2.4c0.7,1,1.3,2.1,1.6,3.2c0.3,1.3,0.5,2.5,0.5,3.8c0,1.9-0.3,3.9-1.1,5.6
		c-0.7,1.6-1.8,3-3.1,4.1c-1.4,1.2-3.1,2.1-4.9,2.6c-2.1,0.6-4.3,0.9-6.5,0.8H0V53.2z M11.8,71h2.2c3.7,0,5.5-1.5,5.5-4.4
		c0-2.9-1.8-4.4-5.5-4.4h-2.2V71z M11.8,89.4h2.6c3,0,5.1-0.4,6.4-1.1c2-1.4,2.5-4.2,1.1-6.2c-0.3-0.4-0.7-0.8-1.1-1.1
		c-1.3-0.8-3.4-1.1-6.4-1.1h-2.6V89.4z"/>
	<path class="st0" d="M39.1,75.9C39,66.1,44.9,57.3,54,53.8c6.5-2.4,13.7-2.4,20.2,0c3,1.1,5.7,2.9,8,5.1c2.2,2.2,4,4.7,5.2,7.6
		c2.5,6,2.5,12.8,0,18.8c-1.2,2.9-3,5.4-5.2,7.6c-2.3,2.2-5,3.9-8,5.1c-6.5,2.4-13.7,2.4-20.2,0C45,94.4,39,85.6,39.1,75.9
		L39.1,75.9z M51.4,75.9c0,1.7,0.3,3.4,1,5c1.3,3,3.8,5.4,6.8,6.6c3.1,1.2,6.6,1.2,9.8,0c1.5-0.6,2.9-1.5,4.1-2.6
		c1.2-1.1,2.1-2.5,2.8-4c1.4-3.2,1.4-6.8,0-10c-0.7-1.5-1.6-2.9-2.8-4c-1.2-1.1-2.6-2-4.1-2.6c-3.1-1.2-6.6-1.2-9.8,0
		c-3,1.2-5.5,3.6-6.8,6.6C51.7,72.4,51.4,74.1,51.4,75.9z"/>
	<circle class="st0" cx="64.6" cy="73.8" r="19.9"/>
	<circle class="st0" cx="64.6" cy="25.6" r="20.7"/>
</g>
</svg>
