<?xml version="1.0" encoding="utf-8"?>
<!-- Generator: Adobe Illustrator 23.0.4, SVG Export Plug-In . SVG Version: 6.00 Build 0)  -->
<svg version="1.1" id="Layer_1" xmlns="http://www.w3.org/2000/svg" xmlns:xlink="http://www.w3.org/1999/xlink" x="0px" y="0px"
	 viewBox="0 0 50.1 47.8" style="enable-background:new 0 0 50.1 47.8;" xml:space="preserve">
<style type="text/css">
	.st0{fill:#FFFFFF;}
</style>
<g>
	<path class="st0" d="M28.7,17c0-2.2-1.4-3.3-4.1-3.3h-1.7v6.6h1.7C27.4,20.3,28.7,19.2,28.7,17z"/>
	<path class="st0" d="M29.7,27.8c-1-0.6-2.6-0.8-4.8-0.8h-2v7.2h2c2.3,0,3.8-0.3,4.8-0.8c1-0.6,1.5-1.7,1.4-2.8
		C31.2,29.4,30.7,28.4,29.7,27.8z"/>
	<path class="st0" d="M48.3,14.5c-1.2-2.9-3-5.4-5.2-7.6c-2.3-2.2-5-4-8-5.1c-6.5-2.4-13.7-2.4-20.2,0.1c-9,3.5-15,12.2-14.9,22
		C-0.1,33.6,5.9,42.4,14.8,46c6.5,2.4,13.7,2.4,20.2,0c3-1.2,5.7-2.9,8-5.1c2.2-2.2,4-4.7,5.2-7.6c1.3-3,1.9-6.2,1.9-9.4
		C50.2,20.7,49.5,17.5,48.3,14.5z M39.3,35.2c-0.5,1.2-1.4,2.3-2.3,3.1c-1.1,0.9-2.3,1.6-3.7,2c-1.6,0.5-3.2,0.7-4.9,0.6H14v-34
		h13.2c3.2,0,5.5,0.8,7.2,2.3c1.7,1.5,2.4,3.7,2.5,6.5c0.1,1.5-0.3,2.9-0.9,4.3c-0.7,1.2-1.7,2.2-2.9,2.9c1.1,0.2,2.2,0.6,3.2,1.1
		c0.8,0.5,1.6,1.1,2.2,1.8c0.5,0.8,1,1.6,1.2,2.4c0.2,1,0.4,1.9,0.4,2.9C40.1,32.4,39.9,33.9,39.3,35.2z"/>
</g>
</svg>
