<svg width="14" height="13" viewBox="0 0 14 13" fill="none" xmlns="http://www.w3.org/2000/svg">
<path d="M4.32988 8.57816L3.09388 6.08602L2.0826 6.70768C1.76502 6.90291 1.36864 6.85112 1.19726 6.59201L0.576635 5.65369C0.405253 5.39457 0.523773 5.02626 0.841361 4.83103L7.35844 0.824811C7.67603 0.629581 8.07241 0.681368 8.24379 0.940482L8.86441 1.87881C9.03579 2.13792 8.91727 2.50623 8.59969 2.70146L7.58841 3.32311L9.41071 5.45484C10.8645 5.18127 12.2851 5.42001 12.9411 6.41188C13.1125 6.67099 12.994 7.0393 12.6764 7.23453L9.41784 9.23764L10.7626 11.2708C10.7787 11.2951 10.7876 11.3233 10.7886 11.3532L10.8342 12.645C10.8398 12.8033 10.6381 12.9276 10.4913 12.8558L9.29567 12.271C9.268 12.2574 9.24523 12.2377 9.22916 12.2135L7.88439 10.1803L4.62585 12.1834C4.30826 12.3786 3.91188 12.3268 3.7405 12.0677C3.07875 11.0672 3.46854 9.72118 4.32988 8.57816Z" fill="white"/>
</svg>
